<svg id="Video_Icon_OP2" data-name="Video Icon OP2" xmlns="http://www.w3.org/2000/svg" width="31" height="31" viewBox="0 0 31 31">
  <path id="Video_Icon_OP2-2" data-name="Video Icon OP2" d="M15.5,31A15.5,15.5,0,0,1,4.54,4.54,15.5,15.5,0,0,1,26.46,26.46,15.4,15.4,0,0,1,15.5,31Zm5.6-12.378L25.076,21.1V14.151L21.1,16.634v-1.49a.994.994,0,0,0-.993-.993H17.631a2.483,2.483,0,1,0-2.486-2.483,2.486,2.486,0,0,0,2.486,2.483H11.671a2.485,2.485,0,1,0-.007,0H10.178a.994.994,0,0,0-.993.993V20.11a.994.994,0,0,0,.993.993H20.11a.994.994,0,0,0,.993-.993Zm-1.987.5H11.172v-2.98h7.945v2.979Z" fill="#707070"/>
</svg>
